# xmcd CD database file
#
# Track frame offsets:
#	150
#	15268
#	29728
#	44317
#	57398
#	71894
#	84795
#	98490
#	111125
#	124696
#	138238
#	150652
#	165966
#	180389
#	195242
#	208364
#	221639
#	235951
#
# Disc length: 3342 seconds
#
# Revision: 0
# Processed by: cddbd v1.5.2PL0 Copyright (c) Steve Scherf et al.
# Submitted via: CDex 1.70beta2
#
DISCID=eb0d0c12
DTITLE=Duke Ellington - The Best Of
DYEAR=1900
DGENRE=Jazz
TTITLE0=Black and Tan Fantasy
TTITLE1=Creole Love Call
TTITLE2=The Mooche
TTITLE3=Mood Indigo
TTITLE4=Rockin' and Rhythm
TTITLE5=Sophisticated Lady
TTITLE6=Solitude
TTITLE7=Caravan
TTITLE8=In a Sentimental Mood
TTITLE9=Echoes of Harlem
TTITLE10=Koko
TTITLE11=Concerto for Cootie
TTITLE12=Cotton Tail
TTITLE13=In a Mellotone
TTITLE14=Take the A Train
TTITLE15=Across the Trak Blues
TTITLE16=Perdido
TTITLE17=Things Ain't What They Used To Be
EXTD=
EXTT0=
EXTT1=
EXTT2=
EXTT3=
EXTT4=
EXTT5=
EXTT6=
EXTT7=
EXTT8=
EXTT9=
EXTT10=
EXTT11=
EXTT12=
EXTT13=
EXTT14=
EXTT15=
EXTT16=
EXTT17=
PLAYORDER=
